<?xml version="1.0" encoding="UTF-8" standalone="no"?>
<!DOCTYPE svg PUBLIC "-//W3C//DTD SVG 1.1//EN" "http://www.w3.org/Graphics/SVG/1.1/DTD/svg11.dtd">
<svg width="100%" height="100%" viewBox="0 0 1514 1514" version="1.1" xmlns="http://www.w3.org/2000/svg" xmlns:xlink="http://www.w3.org/1999/xlink" xml:space="preserve" xmlns:serif="http://www.serif.com/" style="fill-rule:evenodd;clip-rule:evenodd;stroke-linejoin:round;stroke-miterlimit:2;">
    <g transform="matrix(1,0,0,1,-424.524,-660.745)">
        <circle cx="1181.1" cy="1417.32" r="708.661" style="fill:white;"/>
    </g>
    <g transform="matrix(1,0,0,1,-424.524,-660.745)">
        <path d="M1181.1,660.745C1598.67,660.745 1937.68,999.756 1937.68,1417.32C1937.68,1834.89 1598.67,2173.9 1181.1,2173.9C763.536,2173.9 424.524,1834.89 424.524,1417.32C424.524,999.756 763.536,660.745 1181.1,660.745ZM1181.1,756.578C816.427,756.578 520.358,1052.65 520.358,1417.32C520.358,1782 816.427,2078.07 1181.1,2078.07C1545.78,2078.07 1841.85,1782 1841.85,1417.32C1841.85,1052.65 1545.78,756.578 1181.1,756.578Z"/>
    </g>
    <g transform="matrix(0.984894,-0.0247191,-0.0247191,0.959551,-371.647,-574.219)">
        <path d="M1143.77,1440.14C1130.44,1418.32 1136.34,1390.39 1156.95,1377.8C1177.55,1365.2 1205.1,1372.69 1218.43,1394.51L1478.28,1819.71C1491.61,1841.52 1485.7,1869.46 1465.1,1882.05C1444.5,1894.64 1416.95,1887.15 1403.61,1865.33L1143.77,1440.14Z"/>
    </g>
    <g transform="matrix(1,0,0,1,-424.524,-660.745)">
        <path d="M1219.85,1365.66C1248.37,1387.04 1254.16,1427.56 1232.77,1456.07C1211.38,1484.59 1170.87,1490.38 1142.35,1468.99L858.888,1256.39C830.372,1235 824.584,1194.49 845.971,1165.97C867.358,1137.46 907.872,1131.67 936.388,1153.06L1219.85,1365.66Z"/>
    </g>
    <g transform="matrix(1.02094,-0.0269231,-0.0269231,1.03462,-411.098,-678.007)">
        <path d="M1207.41,1437.79C1196.71,1451.55 1176.24,1453.55 1161.71,1442.25C1147.19,1430.95 1144.09,1410.62 1154.79,1396.86L1485.5,971.661C1496.2,957.904 1516.68,955.904 1531.2,967.199C1545.72,978.494 1548.82,998.833 1538.12,1012.59L1207.41,1437.79Z"/>
    </g>
    <g transform="matrix(1,0,0,1,-424.524,-660.745)">
        <path d="M1174.53,1391.05C1189.04,1387.42 1203.75,1396.25 1207.38,1410.75C1211,1425.26 1202.17,1439.97 1187.67,1443.6L715.23,1561.71C700.729,1565.33 686.012,1556.5 682.387,1542C678.761,1527.5 687.591,1512.78 702.093,1509.16L1174.53,1391.05Z"/>
    </g>
    <g transform="matrix(2,0,0,2,-1605.63,-2078.07)">
        <circle cx="1181.1" cy="1417.32" r="47.244"/>
    </g>
    <g transform="matrix(2,0,0,2,-1605.63,-2078.07)">
        <path d="M1181.1,1365.91C1209.48,1365.91 1232.51,1388.95 1232.51,1417.32C1232.51,1445.7 1209.48,1468.73 1181.1,1468.73C1152.73,1468.73 1129.69,1445.7 1129.69,1417.32C1129.69,1388.95 1152.73,1365.91 1181.1,1365.91ZM1181.1,1374.25C1157.33,1374.25 1138.03,1393.55 1138.03,1417.32C1138.03,1441.1 1157.33,1460.4 1181.1,1460.4C1204.88,1460.4 1224.18,1441.1 1224.18,1417.32C1224.18,1393.55 1204.88,1374.25 1181.1,1374.25Z" style="fill:white;"/>
    </g>
</svg>
